<svg xmlns="http://www.w3.org/2000/svg" xmlns:xlink="http://www.w3.org/1999/xlink" xml:space="preserve" style="shape-rendering:geometricPrecision;text-rendering:geometricPrecision;image-rendering:optimizeQuality;" viewBox="0 0 6.82666 8.533325000000001" version="1.1" x="0px" y="0px" fill-rule="evenodd" clip-rule="evenodd"><defs><style type="text/css">
   
    .fil1 {fill:none}
    .fil0 {fill:#c4a78c }
   
  </style></defs><g><g><path class="fil0" d="M2.87931 2.60299c-0.0286142,0 -0.0555591,-0.0176575 -0.0659094,-0.0460394l-0.459669 -1.25381c-0.00997638,-0.0274055 -0.00194882,-0.0582205 0.0200945,-0.0772165 0.0221654,-0.0191378 0.0538346,-0.0224173 0.0794134,-0.0085315l0.404996 0.220937 0.369555 -0.51935c0.0225276,-0.0315433 0.0662362,-0.0389724 0.0979055,-0.0165591 0.0315591,0.0225315 0.0388543,0.0662598 0.0164409,0.0979252l-0.405717 0.57015c-0.0205827,0.0288543 -0.059563,0.0378819 -0.0907402,0.0208268l-0.295976 -0.16139 0.395378 1.07879c0.0133976,0.0362992 -0.00524409,0.0766181 -0.0416654,0.0900118 -0.00802362,0.00291732 -0.0160787,0.00426378 -0.0241063,0.00426378z"/><path class="fil0" d="M3.90999 2.60299c-0.00802756,0 -0.0162165,-0.00133858 -0.0241299,-0.00426378 -0.0364094,-0.0134016 -0.0550551,-0.0537126 -0.0417795,-0.0900079l0.395618 -1.07891 -0.296083 0.161508c-0.031185,0.0170472 -0.0701772,0.00804331 -0.0907638,-0.0208228l-0.405598 -0.570154c-0.0223898,-0.0316654 -0.0150984,-0.0753898 0.0164449,-0.0979213 0.0315709,-0.0224134 0.0753937,-0.0151063 0.0979291,0.0165669l0.369437 0.519343 0.405098 -0.220937c0.0257087,-0.0138937 0.0572402,-0.0105945 0.0794055,0.0085315 0.0220512,0.0189961 0.0300906,0.049811 0.0200945,0.0772165l-0.459791 1.25381c-0.0104685,0.028378 -0.0372717,0.0460433 -0.0658819,0.0460433z"/><path class="fil0" d="M3.39467 0.489988c-0.116201,0 -0.210862,0.0946496 -0.210862,0.210969 7.87402e-006,0.116319 0.0946378,0.210957 0.210839,0.210957 0.116331,-7.87402e-006 0.210953,-0.0946339 0.210953,-0.210957 7.87402e-006,-0.116327 -0.0946378,-0.210957 -0.210929,-0.210969zm0 0.562244c-0.193673,0 -0.351177,-0.15761 -0.351177,-0.351276 7.87402e-006,-0.193665 0.157492,-0.351272 0.351154,-0.351272 0.193807,-1.1811e-005 0.351268,0.157606 0.351268,0.351272 7.87402e-006,0.193654 -0.15748,0.351276 -0.351244,0.351276z"/><path class="fil0" d="M2.82352 2.60287c-0.0534685,0 -0.0970748,0.0434882 -0.0970748,0.0970787 3.93701e-006,0.0534724 0.0436024,0.0970787 0.0970748,0.0970787l1.18415 -3.93701e-006c0.0533622,0 0.0969528,-0.0436024 0.0969528,-0.0971929 7.87402e-006,-0.0534803 -0.0434803,-0.0969528 -0.0969528,-0.0969528l-1.18415 -7.87402e-006zm1.18415 0.334469l-1.18415 0c-0.130807,0 -0.237268,-0.106571 -0.237268,-0.23739 1.9685e-005,-0.130937 0.106457,-0.237386 0.237268,-0.237386l1.18415 -7.87402e-006c0.130835,0 0.237268,0.106461 0.237268,0.237394 -0.000102362,0.130933 -0.106697,0.237394 -0.237268,0.23739z"/><path class="fil0" d="M3.92241 3.27167l-1.01385 0c-0.0698031,0 -0.126575,-0.0567559 -0.126575,-0.126547l1.9685e-005 -0.277949c0,-0.0388622 0.0314055,-0.0701535 0.0701417,-0.0701535 0.0387362,-3.93701e-006 0.0701535,0.0313031 0.0701535,0.0701575l1.5748e-005 0.264181 0.986335 0 0 -0.264185c0,-0.0388622 0.0314173,-0.0701535 0.0701496,-0.0701535 0.0387323,-3.93701e-006 0.0701535,0.0313031 0.0701535,0.0701575l1.1811e-005 0.277937c0,0.0697992 -0.0567677,0.126559 -0.126555,0.126555z"/><path class="fil0" d="M2.41965 5.53972c-0.0106063,0 -0.0213346,-0.00243701 -0.031437,-0.00755118 -0.0345787,-0.0172953 -0.0486024,-0.059437 -0.031311,-0.0941535 0.365795,-0.728744 0.55115,-1.41264 0.55115,-2.03261l1.1811e-005 -0.203894c0,-0.0387402 0.0314134,-0.0701575 0.0701457,-0.0701575 0.038874,0 0.0701575,0.0314291 0.0701575,0.0701575l1.1811e-005 0.203894c0,0.642004 -0.190386,1.34711 -0.566016,2.09558 -0.0122874,0.0244803 -0.0370315,0.0387362 -0.0627126,0.0387323z"/><path class="fil0" d="M4.41156 5.53972c-0.0257047,0 -0.0504331,-0.014252 -0.0627362,-0.0387323 -0.375606,-0.748469 -0.566004,-1.45357 -0.566004,-2.09558l1.1811e-005 -0.203894c0,-0.0387402 0.0312913,-0.0701575 0.0701417,-0.0701575 0.0387402,0 0.0700394,0.0314291 0.0700394,0.0701575l0 0.203894c0,0.619957 0.185496,1.30388 0.551272,2.03261 0.0172992,0.0347087 0.0032874,0.0768583 -0.0313071,0.0941535 -0.0100945,0.00511024 -0.0208307,0.00755512 -0.0314173,0.00755118z"/><path class="fil0" d="M4.72288 5.97163c-0.0387244,0 -0.0701654,-0.0314213 -0.0701654,-0.0701535l7.87402e-006 -0.348843c0,-0.0071811 -0.00585039,-0.0129016 -0.0130433,-0.0129016l-2.45267 -3.93701e-006c-0.00718504,0 -0.0129291,0.00572835 -0.0129291,0.0129134l1.9685e-005 0.348835c0,0.0387205 -0.0314449,0.0701575 -0.0701811,0.0701575 -0.0388386,-3.93701e-006 -0.0701535,-0.0314252 -0.0701535,-0.0701575l1.9685e-005 -0.348843c0,-0.0845315 0.0686732,-0.153217 0.153209,-0.153217l2.45272 -3.93701e-006c0.0845157,0 0.153323,0.0686969 0.153323,0.153228l7.87402e-006 0.348835c0,0.0387205 -0.0314291,0.0701575 -0.0701575,0.0701535z"/><path class="fil0" d="M1.91674 6.33666l2.99324 0 0 -0.364913 -2.99324 0 0 0.364913zm2.99982 0.140315l-3.00629 0c-0.0738031,0 -0.133866,-0.0600433 -0.133866,-0.133732l1.9685e-005 -0.378075c0,-0.073689 0.0600236,-0.133732 0.133839,-0.133732l3.0063 -3.93701e-006c0.0736929,0 0.133724,0.0600512 0.133724,0.13374l1.1811e-005 0.378067c0,0.0736929 -0.060063,0.13374 -0.133736,0.133736z"/><path class="fil0" d="M1.53865 2.60287c-0.299866,0 -0.543846,0.24385 -0.543846,0.543724 2.3622e-005,0.299736 0.243965,0.543717 0.543839,0.543717 0.299768,-7.87402e-006 0.543713,-0.243969 0.543713,-0.543717 1.1811e-005,-0.299886 -0.243961,-0.543717 -0.543705,-0.543724zm0 1.22775c-0.377201,0 -0.684043,-0.306929 -0.684043,-0.684024 1.1811e-005,-0.37722 0.306819,-0.684031 0.684035,-0.684031 0.377102,-7.87402e-006 0.684028,0.306815 0.684028,0.684031 1.1811e-005,0.377087 -0.306937,0.684031 -0.68402,0.684024z"/><path class="fil0" d="M1.10382 3.83061c-0.0600433,0 -0.108772,0.0487283 -0.108772,0.108776 0,0.0599213 0.0487205,0.108768 0.108772,0.108768l0.86978 -1.5748e-005c0.0599409,0 0.10876,-0.0488268 0.10876,-0.108752 1.1811e-005,-0.060063 -0.0488386,-0.108768 -0.108764,-0.108768l-0.869776 -7.87402e-006zm0.86978 0.357858l-0.86978 0c-0.137382,0 -0.249087,-0.111815 -0.249087,-0.249083 0,-0.137398 0.111697,-0.249083 0.249087,-0.249083l0.86978 -7.87402e-006c0.137276,0 0.249075,0.111701 0.249075,0.249091 1.1811e-005,0.137256 -0.111811,0.249083 -0.249075,0.249083z"/><path class="fil0" d="M1.84644 6.19184l-1.25417 0c-0.071748,0 -0.130106,-0.0583386 -0.130106,-0.129957l1.1811e-005 -0.3715c0,-0.0717323 0.0583307,-0.130071 0.130075,-0.130071l1.51169 -7.87402e-006c0.0387244,0 0.0701378,0.0314291 0.0701378,0.0701654 1.9685e-005,0.0387283 -0.0314252,0.0701575 -0.0701614,0.0701575l-1.50142 -7.87402e-006 0 0.350906 1.24394 0c0.0387244,0 0.0701496,0.0314331 0.0701496,0.0701654 7.87402e-006,0.0387323 -0.0314252,0.0701575 -0.0701496,0.0701496z"/><path class="fil0" d="M0.720146 5.70074c-0.0107165,0 -0.0215591,-0.00243307 -0.0316693,-0.00754331 -0.0345669,-0.0175433 -0.0483543,-0.059685 -0.0309409,-0.0942756l0.0415354 -0.0818661c0.218886,-0.431531 0.334591,-0.915197 0.334591,-1.39874 0,-0.0387362 0.0312992,-0.0701575 0.0701575,-0.0701575 0.038752,-1.5748e-005 0.0700315,0.0314252 0.0700315,0.0701575 1.5748e-005,0.505457 -0.120823,1.01119 -0.349685,1.46222l-0.0413976 0.0818425c-0.0124173,0.0243622 -0.0370394,0.0383701 -0.062622,0.0383661z"/><path class="fil0" d="M2.277 5.53972c-0.0263071,0 -0.0515236,-0.0148622 -0.0634606,-0.0401929 -0.202913,-0.428984 -0.310106,-0.906685 -0.310106,-1.38134 1.1811e-005,-0.0388583 0.0313071,-0.0701575 0.0701614,-0.0701575 0.0387283,0 0.0701535,0.0313071 0.0701535,0.0701575 7.87402e-006,0.454063 0.102555,0.910949 0.296591,1.3213 0.0165787,0.0350669 0.0015748,0.0768543 -0.033378,0.0934213 -0.00973228,0.00462598 -0.0199685,0.00682283 -0.0299606,0.0068189z"/><path class="fil0" d="M5.28817 2.60287c-0.299866,0 -0.543732,0.24385 -0.543732,0.543724 1.5748e-005,0.299736 0.243843,0.543717 0.543717,0.543717 0.299776,-7.87402e-006 0.54372,-0.243969 0.54372,-0.543717 1.1811e-005,-0.299886 -0.243969,-0.543717 -0.543705,-0.543724zm0 1.22775c-0.377232,0 -0.684047,-0.306929 -0.684047,-0.684024 1.5748e-005,-0.37722 0.306811,-0.684031 0.684031,-0.684031 0.37711,-7.87402e-006 0.684035,0.306815 0.684035,0.684031 1.1811e-005,0.377087 -0.306941,0.684031 -0.68402,0.684024z"/><path class="fil0" d="M4.85322 3.83061c-0.0600433,0 -0.108787,0.0487283 -0.108787,0.108776 1.5748e-005,0.0599213 0.0487165,0.108768 0.108768,0.108768l0.869799 -1.5748e-005c0.0599134,0 0.10874,-0.0488268 0.10874,-0.108752 3.93701e-006,-0.060063 -0.0488346,-0.108768 -0.108764,-0.108768l-0.869756 -7.87402e-006zm0.86978 0.357858l-0.86978 0c-0.137409,0 -0.249102,-0.111815 -0.249102,-0.249083 1.5748e-005,-0.137398 0.111689,-0.249083 0.249083,-0.249083l0.869799 -7.87402e-006c0.137248,0 0.249055,0.111701 0.249055,0.249091 3.93701e-006,0.137256 -0.111807,0.249083 -0.249055,0.249083z"/><path class="fil0" d="M6.23455 6.19184l-1.25431 0c-0.0387205,0 -0.0701575,-0.0314173 -0.0701575,-0.0701496 0,-0.0387441 0.0314252,-0.0701575 0.0701575,-0.0701575l1.24394 -7.87402e-006 0 -0.350906 -1.50117 0c-0.038752,0 -0.0701811,-0.0314173 -0.0701811,-0.0701496 2.3622e-005,-0.0387441 0.0314252,-0.0701575 0.0701575,-0.0701575l1.51155 -7.87402e-006c0.0716339,0 0.129953,0.0583504 0.129953,0.130087l0 0.37148c0,0.071622 -0.0583425,0.129976 -0.129953,0.129969z"/><path class="fil0" d="M4.54982 5.53972c-0.0101142,0 -0.0203622,-0.00218898 -0.0299882,-0.0068189 -0.0350748,-0.0165748 -0.0500551,-0.0583425 -0.0334921,-0.0934213 0.194146,-0.410224 0.296705,-0.86722 0.296705,-1.3213 1.9685e-005,-0.0388583 0.0314213,-0.0701575 0.0701575,-0.0701575 0.0387441,0 0.0701575,0.0313071 0.0701575,0.0701575 1.9685e-005,0.474657 -0.107311,0.952362 -0.31011,1.38134 -0.0120433,0.0253228 -0.0372677,0.0401969 -0.0634291,0.0401929z"/><path class="fil0" d="M6.10678 5.70074c-0.0255669,0 -0.050315,-0.014 -0.0626181,-0.0383622l-0.0466457 -0.0918386c-0.225571,-0.444331 -0.344701,-0.942614 -0.344701,-1.44102l0 -0.0112205c0,-0.0387205 0.0314291,-0.0701417 0.0701575,-0.0701417 0.038752,-1.5748e-005 0.0701575,0.0314252 0.0701575,0.0701575l0 0.0111969c0,0.476366 0.113886,0.952728 0.329469,1.37745l0.0466654 0.0919567c0.0175394,0.0344606 0.00375984,0.0767402 -0.0308268,0.0942795 -0.0102283,0.0051063 -0.0210709,0.00754724 -0.0316575,0.00754331z"/></g></g><rect class="fil1" width="6.82666" height="6.82666"/><text x="0" y="21.82666" fill="#000000" font-size="5px" font-weight="bold" font-family="'Helvetica Neue', Helvetica, Arial-Unicode, Arial, Sans-serif">Created by Circlon Tech</text><text x="0" y="26.82666" fill="#000000" font-size="5px" font-weight="bold" font-family="'Helvetica Neue', Helvetica, Arial-Unicode, Arial, Sans-serif">from the Noun Project</text></svg>